<svg width="35" height="35" viewBox="0 0 35 35" fill="none" xmlns="http://www.w3.org/2000/svg">
<path d="M17.5001 19.4444H15.5556V17.5C15.5556 16.3333 14.7778 15.5555 13.6112 15.5555C12.4445 15.5555 11.6667 16.3333 11.6667 17.5V19.4444H9.72228C8.55561 19.4444 7.77783 20.2222 7.77783 21.3889C7.77783 22.5555 8.55561 23.3333 9.72228 23.3333H11.6667V25.2778C11.6667 26.4444 12.4445 27.2222 13.6112 27.2222C14.7778 27.2222 15.5556 26.4444 15.5556 25.2778V23.3333H17.5001C18.6667 23.3333 19.4445 22.5555 19.4445 21.3889C19.4445 20.2222 18.6667 19.4444 17.5001 19.4444Z" fill="white"/>
<path d="M27.2222 0H15.5556C11.2778 0 7.77778 3.5 7.77778 7.77778C3.5 7.77778 0 11.2778 0 15.5556V27.2222C0 31.5 3.5 35 7.77778 35H19.4444C23.7222 35 27.2222 31.5 27.2222 27.2222C31.5 27.2222 35 23.7222 35 19.4444V7.77778C35 3.5 31.5 0 27.2222 0ZM23.3333 25.2778V27.2222C23.3333 29.3611 21.5833 31.1111 19.4444 31.1111H7.77778C5.63889 31.1111 3.88889 29.3611 3.88889 27.2222V15.5556C3.88889 13.4167 5.63889 11.6667 7.77778 11.6667H9.72222H19.4444C21.5833 11.6667 23.3333 13.4167 23.3333 15.5556V25.2778ZM31.1111 19.4444C31.1111 21.5833 29.3611 23.3333 27.2222 23.3333V15.5556C27.2222 11.2778 23.7222 7.77778 19.4444 7.77778H11.6667C11.6667 5.63889 13.4167 3.88889 15.5556 3.88889H27.2222C29.3611 3.88889 31.1111 5.63889 31.1111 7.77778V19.4444Z" fill="white"/>
</svg>
