<svg width="93" height="91" viewBox="0 0 93 91" fill="none" xmlns="http://www.w3.org/2000/svg">
<path d="M85.6059 0.43573H7.39079C3.29917 0.43573 0 3.81116 0 7.94921V83.0641C0 87.2088 3.29917 90.5643 7.39079 90.5643H85.6059C89.6809 90.5643 93 87.2088 93 83.0641V7.94921C93.0033 3.81116 89.6809 0.43573 85.6059 0.43573ZM12.0759 5.83045H80.9274C84.515 5.83045 87.4362 8.79804 87.4362 12.442V27.3165H5.56382V12.442C5.56382 8.79472 8.46841 5.83045 12.0759 5.83045ZM62.9295 34.7968V85.1729H29.5466V34.7968H62.9295ZM5.56382 78.5613V34.7968H22.3415V85.1729H12.0759C8.46841 85.1762 5.56382 82.2153 5.56382 78.5613ZM80.9241 85.1762H70.1446V34.7968H87.4329V78.5613C87.4329 82.2153 84.5117 85.1762 80.9241 85.1762Z" fill="white"/>
</svg>
