<svg width="107" height="93" viewBox="0 0 107 93" fill="none" xmlns="http://www.w3.org/2000/svg">
<path d="M53.5069 0C23.9604 0 0.0138681 19.3266 0.0138681 43.1786C0.0138681 53.0598 4.17212 62.1107 11.0677 69.3971C7.95425 77.5761 1.47657 84.5096 1.37209 84.5926C-0.00702763 86.0458 -0.383151 88.1632 0.410887 89.99C1.20492 91.8167 3.02285 93 5.02884 93C17.8797 93 28.0141 87.665 34.0948 83.3886C40.1337 85.2777 46.6531 86.3571 53.5069 86.3571C83.0535 86.3571 107 67.0306 107 43.1786C107 19.3266 83.0535 0 53.5069 0ZM53.5069 76.3929C47.9278 76.3929 42.4113 75.5417 37.1247 73.881L32.3814 72.3864L28.3067 75.2511C25.3186 77.3478 21.223 79.6935 16.2916 81.2712C17.817 78.7594 19.3006 75.9362 20.4499 72.9261L22.6648 67.0929L18.3603 62.5674C14.5782 58.5609 10.0438 51.9388 10.0438 43.1786C10.0438 24.8692 29.5395 9.96429 53.5069 9.96429C77.4743 9.96429 96.9701 24.8692 96.9701 43.1786C96.9701 61.4879 77.4743 76.3929 53.5069 76.3929Z" fill="white"/>
</svg>
